<?xml version="1.0" encoding="UTF-8" standalone="no"?>
<!-- Created with Inkscape (http://www.inkscape.org/) -->

<svg
   xmlns:dc="http://purl.org/dc/elements/1.1/"
   xmlns:cc="http://creativecommons.org/ns#"
   xmlns:rdf="http://www.w3.org/1999/02/22-rdf-syntax-ns#"
   xmlns:svg="http://www.w3.org/2000/svg"
   xmlns="http://www.w3.org/2000/svg"
   xmlns:sodipodi="http://sodipodi.sourceforge.net/DTD/sodipodi-0.dtd"
   xmlns:inkscape="http://www.inkscape.org/namespaces/inkscape"
   width="210mm"
   height="297mm"
   viewBox="0 0 210 297"
   version="1.1"
   id="svg8"
   inkscape:version="0.92.4 (unknown)"
   sodipodi:docname="thx.svg">
  <defs
     id="defs2">
    <inkscape:path-effect
       effect="bend_path"
       id="path-effect894"
       is_visible="true"
       bendpath="M 86.33988,161.62431 H 98.416328"
       prop_scale="1"
       scale_y_rel="false"
       vertical="false" />
  </defs>
  <sodipodi:namedview
     id="base"
     pagecolor="#ffffff"
     bordercolor="#666666"
     borderopacity="1.0"
     inkscape:pageopacity="0.0"
     inkscape:pageshadow="2"
     inkscape:zoom="1.0990854"
     inkscape:cx="324.28571"
     inkscape:cy="562.85714"
     inkscape:document-units="mm"
     inkscape:current-layer="layer1"
     showgrid="false"
     inkscape:window-width="1366"
     inkscape:window-height="703"
     inkscape:window-x="0"
     inkscape:window-y="0"
     inkscape:window-maximized="1" />
  <metadata
     id="metadata5">
    <rdf:RDF>
      <cc:Work
         rdf:about="">
        <dc:format>image/svg+xml</dc:format>
        <dc:type
           rdf:resource="http://purl.org/dc/dcmitype/StillImage" />
        <dc:title></dc:title>
      </cc:Work>
    </rdf:RDF>
  </metadata>
  <g
     inkscape:label="Ebene 1"
     inkscape:groupmode="layer"
     id="layer1">
    <path
       style="fill:#333333;stroke:none;stroke-width:0.97878826;stroke-linecap:round;stroke-linejoin:round"
       inkscape:connector-curvature="0"
       d="m 77.620136,138.63621 37.389474,2.7825 c 4.01365,0 7.2334,3.36353 7.2334,7.55669 l -2.30237,23.73486 c 0,4.19321 -2.56749,7.23745 -6.58099,7.23745 l -8.1706,0.14903 1.92241,8.79812 -12.069228,-8.628 -12.455979,0.36186 c -4.013646,0 -9.219329,-3.72886 -9.219329,-7.92196 l -3.64494,-25.11491 c 0,-4.1932 3.884793,-8.95574 7.898248,-8.95574 z"
       id="path859" />
    <path
       style="fill:#00ff00;stroke:#000000;stroke-width:0.97878826;stroke-linecap:round;stroke-linejoin:round"
       inkscape:connector-curvature="0"
       d="m 74.628557,136.20939 37.389473,2.78249 c 4.01365,0 7.2334,3.36353 7.2334,7.55669 l -2.30237,23.73486 c 0,4.19321 -2.56749,7.23745 -6.58099,7.23745 l -8.1706,0.14903 1.92241,8.79812 -12.069227,-8.62799 -12.455979,0.36185 c -4.013646,0 -9.219329,-3.72885 -9.219329,-7.92196 l -3.64494,-25.1149 c 0,-4.19321 3.884793,-8.95574 7.898248,-8.95574 z"
       id="path861" />
    <path
       sodipodi:nodetypes="ccccccccc"
       inkscape:connector-curvature="0"
       id="path882"
       style="font-style:normal;font-variant:normal;font-weight:bold;font-stretch:normal;font-size:22.101614px;line-height:1.25;font-family:sans-serif;-inkscape-font-specification:'sans-serif Bold';letter-spacing:0px;word-spacing:0px;fill:#000000;fill-opacity:1;stroke:none;stroke-width:0.55254036"
       d="m 72.895308,146.54462 12.338424,-0.97601 v 3.5745 l -4.133134,0.40667 0.732008,17.94049 -2.925461,0.0814 -0.976014,-17.37114 -4.873154,0.48801 z" />
    <path
       sodipodi:nodetypes="cccccccccccc"
       inkscape:connector-curvature="0"
       id="path884"
       style="font-style:normal;font-variant:normal;font-weight:bold;font-stretch:normal;font-size:22.101614px;line-height:1.25;font-family:sans-serif;-inkscape-font-specification:'sans-serif Bold';letter-spacing:0px;word-spacing:0px;fill:#000000;fill-opacity:1;stroke:none;stroke-width:0.55254036"
       d="m 86.665204,150.62279 4.838991,-0.65069 -1.138679,8.99363 4.067995,0.0814 0.488003,-8.34295 3.494814,0.732 -0.406675,20.45766 -3.088139,0.48799 -0.650673,-9.7602 -3.905325,0.56934 0.569338,9.5162 -4.594974,-0.56934"
       inkscape:original-d="m 86.665204,150.62279 4.838991,-0.65069 -1.138679,8.99363 4.067995,0.0814 0.488003,-8.34295 3.494814,0.732 -0.406675,20.45766 -3.088139,0.48799 -0.650673,-9.7602 -3.905325,0.56934 0.569338,9.5162 -4.594974,-0.56934" />
    <path
       sodipodi:nodetypes="ccccccccccccc"
       inkscape:connector-curvature="0"
       id="path886"
       style="font-style:normal;font-variant:normal;font-weight:bold;font-stretch:normal;font-size:22.101614px;line-height:1.25;font-family:sans-serif;-inkscape-font-specification:'sans-serif Bold';letter-spacing:0px;word-spacing:0px;fill:#000000;fill-opacity:1;stroke:none;stroke-width:0.55254036"
       d="m 107.25975,156.18238 4.15494,11.06388 h -3.21647 l -2.79937,-7.40496 -1.96197,7.32363 -4.045858,0.0814 4.154948,-11.06388 -3.994522,-10.61378 h 3.956502 l 1.8909,6.9839 2.61489,-6.9839 h 3.24053 z" />
  </g>
</svg>
